<svg width="252" height="42" viewBox="0 0 252 42" fill="none" xmlns="http://www.w3.org/2000/svg">
<path d="M109.263 10.9448C109.098 10.7693 109.015 10.6816 108.917 10.6188C108.83 10.5631 108.735 10.5219 108.635 10.4969C108.521 10.4687 108.401 10.4687 108.159 10.4687L101.434 10.4687C101.258 10.4687 101.169 10.4688 101.102 10.503C101.042 10.5331 100.994 10.5812 100.964 10.6403C100.93 10.7075 100.93 10.7956 100.93 10.9715L100.93 41.3911C100.93 41.5671 100.93 41.655 100.964 41.7223C100.994 41.7815 101.042 41.8295 101.102 41.8596C101.169 41.8939 101.258 41.8939 101.434 41.8939L110.938 41.8939C111.115 41.8939 111.203 41.8939 111.271 41.8596C111.33 41.8295 111.378 41.7815 111.408 41.7223C111.443 41.655 111.443 41.5671 111.443 41.3911L111.443 27.7367C111.443 27.5361 111.443 27.4359 111.482 27.3916C111.516 27.3529 111.566 27.3333 111.617 27.3389C111.676 27.3452 111.744 27.4189 111.881 27.5664L124.66 41.4068C124.826 41.5861 124.909 41.6759 125.007 41.7403C125.095 41.7973 125.191 41.8393 125.293 41.865C125.407 41.8939 125.529 41.8939 125.774 41.8939L132.49 41.8939C132.667 41.8939 132.755 41.8939 132.822 41.8596C132.882 41.8295 132.93 41.7815 132.96 41.7223C132.995 41.655 132.995 41.5671 132.995 41.3911L132.995 10.9715C132.995 10.7956 132.995 10.7075 132.96 10.6403C132.93 10.5812 132.882 10.5331 132.822 10.503C132.755 10.4688 132.667 10.4687 132.49 10.4687L122.986 10.4687C122.809 10.4687 122.721 10.4688 122.654 10.503C122.594 10.5331 122.546 10.5812 122.516 10.6403C122.481 10.7075 122.481 10.7956 122.481 10.9715L122.481 24.3393C122.481 24.5372 122.481 24.6363 122.443 24.6806C122.409 24.719 122.359 24.7389 122.308 24.7339C122.249 24.7278 122.181 24.6557 122.045 24.5113L109.263 10.9448Z" fill="white"/>
<path d="M153.647 10.4687C153.404 10.4687 153.282 10.4688 153.176 10.5074C153.083 10.5417 152.999 10.5973 152.932 10.67C152.855 10.7521 152.809 10.8639 152.715 11.0876L140.124 41.1976C140.026 41.4304 139.978 41.5468 139.996 41.6404C140.012 41.7223 140.061 41.7944 140.13 41.8408C140.21 41.8939 140.336 41.8939 140.589 41.8939L149.673 41.8939C149.916 41.8939 150.037 41.8939 150.143 41.8552C150.236 41.821 150.32 41.7652 150.387 41.6927C150.464 41.6105 150.511 41.4987 150.604 41.275L157.997 23.5957C158.071 23.421 158.107 23.3334 158.159 23.3073C158.204 23.2845 158.257 23.2845 158.302 23.3073C158.354 23.3334 158.39 23.421 158.463 23.5957L165.856 41.275C165.95 41.4987 165.997 41.6105 166.073 41.6927C166.141 41.7652 166.224 41.821 166.318 41.8552C166.423 41.8939 166.545 41.8939 166.788 41.8939L175.871 41.8939C176.124 41.8939 176.251 41.8939 176.33 41.8408C176.4 41.7944 176.448 41.7223 176.464 41.6404C176.483 41.5468 176.434 41.4304 176.337 41.1976L163.746 11.0876C163.652 10.8639 163.605 10.7521 163.529 10.67C163.461 10.5973 163.377 10.5417 163.284 10.5074C163.179 10.4688 163.057 10.4687 162.814 10.4687L153.647 10.4687Z" fill="white"/>
<path d="M216.126 41.0894C215.93 41.3483 215.834 41.4778 215.836 41.5861C215.838 41.6805 215.882 41.7689 215.956 41.827C216.042 41.8939 216.203 41.8939 216.529 41.8939L226.953 41.8939C227.195 41.8939 227.315 41.8939 227.424 41.8615C227.52 41.8331 227.611 41.7861 227.69 41.7234C227.781 41.6525 227.848 41.5547 227.987 41.3587L233.541 33.4698C233.61 33.3735 233.644 33.3253 233.686 33.3077C233.724 33.2924 233.766 33.292 233.801 33.3062C233.846 33.3225 233.881 33.37 233.951 33.4644L239.847 41.3857C239.986 41.5719 240.055 41.6651 240.143 41.7324C240.221 41.7919 240.309 41.8362 240.404 41.8634C240.511 41.8939 240.629 41.8939 240.86 41.8939L251.307 41.8939C251.63 41.8939 251.794 41.8939 251.878 41.827C251.954 41.7689 251.998 41.6805 252 41.5861C252.002 41.4778 251.906 41.3483 251.71 41.0894L239.812 25.2834C239.73 25.1731 239.688 25.1177 239.673 25.0573C239.658 25.0038 239.658 24.9476 239.673 24.8945C239.69 24.8344 239.734 24.78 239.82 24.6714L250.362 11.2819C250.566 11.0211 250.669 10.8908 250.669 10.7812C250.669 10.686 250.625 10.5961 250.549 10.5368C250.463 10.4688 250.297 10.4687 249.965 10.4687L239.805 10.4687C239.574 10.4687 239.459 10.4688 239.352 10.4989C239.257 10.5257 239.169 10.5696 239.091 10.6285C239.003 10.695 238.934 10.7872 238.795 10.9715L234.119 17.1839C234.051 17.2749 234.018 17.3204 233.976 17.3367C233.938 17.3509 233.898 17.3509 233.86 17.3367C233.818 17.3204 233.785 17.2749 233.715 17.1839L229.039 10.9715C228.9 10.7872 228.831 10.695 228.743 10.6285C228.665 10.5696 228.577 10.5257 228.484 10.4989C228.377 10.4688 228.262 10.4687 228.031 10.4687L217.837 10.4687C217.514 10.4687 217.352 10.4688 217.266 10.5353C217.193 10.5931 217.148 10.6812 217.144 10.7753C217.142 10.8834 217.239 11.0126 217.432 11.2711L227.718 25.0901C227.798 25.1982 227.837 25.2521 227.854 25.3114C227.867 25.3636 227.867 25.4186 227.852 25.4706C227.837 25.5298 227.798 25.5837 227.716 25.6913L216.126 41.0894Z" fill="white"/>
<path d="M176.331 10.4687C176.078 10.4687 175.952 10.4688 175.872 10.5218C175.803 10.5682 175.754 10.6403 175.738 10.7221C175.72 10.8158 175.768 10.9322 175.866 11.1649L188.457 41.275C188.551 41.4987 188.597 41.6105 188.674 41.6927C188.741 41.7652 188.825 41.821 188.918 41.8552C189.024 41.8939 189.145 41.8939 189.389 41.8939L198.556 41.8939C198.799 41.8939 198.921 41.8939 199.026 41.8552C199.12 41.821 199.203 41.7652 199.271 41.6927C199.348 41.6105 199.394 41.4987 199.488 41.275L212.079 11.1649C212.177 10.9322 212.226 10.8158 212.207 10.7221C212.19 10.6403 212.142 10.5682 212.072 10.5218C211.992 10.4688 211.866 10.4687 211.612 10.4687L202.53 10.4687C202.287 10.4687 202.165 10.4688 202.06 10.5074C201.967 10.5417 201.883 10.5973 201.815 10.67C201.739 10.7521 201.692 10.8639 201.598 11.0876L194.205 28.7669C194.132 28.9418 194.096 29.0291 194.044 29.0553C193.999 29.078 193.946 29.078 193.901 29.0553C193.849 29.0291 193.813 28.9418 193.739 28.7669L186.346 11.0876C186.253 10.8639 186.206 10.7521 186.13 10.67C186.062 10.5973 185.978 10.5417 185.885 10.5074C185.78 10.4688 185.658 10.4687 185.415 10.4687L176.331 10.4687Z" fill="white"/>
<path d="M32.6328 25.6613L36.5806 20.4238L44.4762 30.899L40.5284 36.1364L32.6328 25.6613Z" fill="white"/>
<path d="M32.6328 25.6613L36.5806 20.4238L44.4762 30.899L40.5284 36.1364L32.6328 25.6613Z" fill="url(#paint0_linear_2239_1122)"/>
<path fill-rule="evenodd" clip-rule="evenodd" d="M34.9931 23.175C34.9083 22.997 34.6636 22.9725 34.5448 23.1303L28.4504 31.2156C28.351 31.3477 28.195 31.4252 28.0293 31.4252L16.1859 31.4252C15.9691 31.4252 15.8453 31.1788 15.9754 31.0062L29.661 12.8494C29.7662 12.7097 29.9769 12.7097 30.0821 12.8494L51.8213 41.6907C51.9208 41.8226 52.0766 41.9003 52.2423 41.9003L64.349 41.9003C64.5147 41.9003 64.6708 41.8226 64.7701 41.6907L88.062 10.7893C88.2023 10.6031 88.2023 10.347 88.062 10.1608L80.5612 0.2095C80.4619 0.077617 80.3059 -2.75809e-07 80.1402 -2.7524e-07L52.2423 -1.79425e-07C52.0766 -1.78856e-07 51.9208 0.0776169 51.8213 0.2095L44.0836 10.4751L36.346 0.2095C36.2466 0.0776171 36.0906 -1.23953e-07 35.9249 -1.23383e-07L23.8184 -8.18039e-08C23.6527 -8.12349e-08 23.4967 0.077617 23.3972 0.209501L0.105275 31.1109C-0.0350905 31.2971 -0.0350907 31.5533 0.105275 31.7395L7.60607 41.6907C7.70549 41.8226 7.8615 41.9003 8.02717 41.9003L35.9249 41.9003C36.0906 41.9003 36.2466 41.8226 36.346 41.6907L40.7347 35.8682C40.8519 35.7127 40.8729 35.5053 40.7891 35.3295L34.9931 23.175ZM60.1379 10.4751C59.9722 10.4751 59.8164 10.5527 59.7169 10.6846L51.9792 20.9501L58.0852 29.0508C58.1904 29.1906 58.401 29.1906 58.5062 29.0508L72.1919 10.8941C72.3221 10.7214 72.1982 10.4751 71.9813 10.4751L60.1379 10.4751Z" fill="white"/>
<path fill-rule="evenodd" clip-rule="evenodd" d="M34.9931 23.175C34.9083 22.997 34.6636 22.9725 34.5448 23.1303L28.4504 31.2156C28.351 31.3477 28.195 31.4252 28.0293 31.4252L16.1859 31.4252C15.9691 31.4252 15.8453 31.1788 15.9754 31.0062L29.661 12.8494C29.7662 12.7097 29.9769 12.7097 30.0821 12.8494L51.8213 41.6907C51.9208 41.8226 52.0766 41.9003 52.2423 41.9003L64.349 41.9003C64.5147 41.9003 64.6708 41.8226 64.7701 41.6907L88.062 10.7893C88.2023 10.6031 88.2023 10.347 88.062 10.1608L80.5612 0.2095C80.4619 0.077617 80.3059 -2.75809e-07 80.1402 -2.7524e-07L52.2423 -1.79425e-07C52.0766 -1.78856e-07 51.9208 0.0776169 51.8213 0.2095L44.0836 10.4751L36.346 0.2095C36.2466 0.0776171 36.0906 -1.23953e-07 35.9249 -1.23383e-07L23.8184 -8.18039e-08C23.6527 -8.12349e-08 23.4967 0.077617 23.3972 0.209501L0.105275 31.1109C-0.0350905 31.2971 -0.0350907 31.5533 0.105275 31.7395L7.60607 41.6907C7.70549 41.8226 7.8615 41.9003 8.02717 41.9003L35.9249 41.9003C36.0906 41.9003 36.2466 41.8226 36.346 41.6907L40.7347 35.8682C40.8519 35.7127 40.8729 35.5053 40.7891 35.3295L34.9931 23.175ZM60.1379 10.4751C59.9722 10.4751 59.8164 10.5527 59.7169 10.6846L51.9792 20.9501L58.0852 29.0508C58.1904 29.1906 58.401 29.1906 58.5062 29.0508L72.1919 10.8941C72.3221 10.7214 72.1982 10.4751 71.9813 10.4751L60.1379 10.4751Z" fill="url(#paint1_linear_2239_1122)"/>
<path d="M28.5351 31.1188L34.5505 23.1379C34.6692 22.9804 34.9138 23.0048 34.9989 23.1828L40.7946 35.3372C40.8784 35.5129 40.8576 35.7204 40.7403 35.876L36.4042 41.6286C36.299 41.7684 36.0883 41.7684 35.9831 41.6286L28.5351 31.7471C28.3946 31.5609 28.3946 31.3049 28.5351 31.1188Z" fill="white"/>
<path d="M28.5351 31.1188L34.5505 23.1379C34.6692 22.9804 34.9138 23.0048 34.9989 23.1828L40.7946 35.3372C40.8784 35.5129 40.8576 35.7204 40.7403 35.876L36.4042 41.6286C36.299 41.7684 36.0883 41.7684 35.9831 41.6286L28.5351 31.7471C28.3946 31.5609 28.3946 31.3049 28.5351 31.1188Z" fill="url(#paint2_linear_2239_1122)"/>
<path d="M44.0859 10.484L51.7711 0.288345C51.8763 0.148677 52.0869 0.148677 52.1921 0.288345L59.6402 10.1698C59.7807 10.356 59.7807 10.6121 59.6402 10.7983L51.9815 20.9591L44.0859 10.484Z" fill="white"/>
<path d="M44.0859 10.484L51.7711 0.288345C51.8763 0.148677 52.0869 0.148677 52.1921 0.288345L59.6402 10.1698C59.7807 10.356 59.7807 10.6121 59.6402 10.7983L51.9815 20.9591L44.0859 10.484Z" fill="url(#paint3_linear_2239_1122)"/>
<defs>
<linearGradient id="paint0_linear_2239_1122" x1="38.5544" y1="20.4238" x2="38.5544" y2="36.1364" gradientUnits="userSpaceOnUse">
<stop stop-color="white"/>
<stop offset="1" stop-color="white" stop-opacity="0"/>
</linearGradient>
<linearGradient id="paint1_linear_2239_1122" x1="44.0836" y1="-1.51404e-07" x2="44.0836" y2="41.9003" gradientUnits="userSpaceOnUse">
<stop stop-color="white"/>
<stop offset="1" stop-color="white" stop-opacity="0"/>
</linearGradient>
<linearGradient id="paint2_linear_2239_1122" x1="44.0891" y1="0.182391" x2="44.0891" y2="41.7335" gradientUnits="userSpaceOnUse">
<stop stop-color="white" stop-opacity="0"/>
<stop offset="1" stop-color="white"/>
</linearGradient>
<linearGradient id="paint3_linear_2239_1122" x1="44.0859" y1="0.183594" x2="44.0859" y2="41.7347" gradientUnits="userSpaceOnUse">
<stop stop-color="white" stop-opacity="0"/>
<stop offset="1" stop-color="white"/>
</linearGradient>
</defs>
</svg>
